<svg width="12" height="22" viewBox="0 0 12 22" fill="none" xmlns="http://www.w3.org/2000/svg">
<path d="M6.68896 15.1943H4.05518C4.06462 14.2881 4.14486 13.547 4.2959 12.9712C4.45638 12.3859 4.71598 11.8525 5.07471 11.3711C5.43343 10.8896 5.91016 10.3421 6.50488 9.72852C6.93913 9.28483 7.33561 8.86947 7.69434 8.48242C8.0625 8.08594 8.35986 7.66113 8.58643 7.20801C8.81299 6.74544 8.92627 6.1932 8.92627 5.55127C8.92627 4.8999 8.80827 4.33822 8.57227 3.86621C8.3457 3.39421 8.00586 3.03076 7.55273 2.77588C7.10905 2.521 6.5568 2.39355 5.896 2.39355C5.34847 2.39355 4.82926 2.49268 4.33838 2.69092C3.84749 2.88916 3.45101 3.19596 3.14893 3.61133C2.84684 4.01725 2.69108 4.55062 2.68164 5.21143H0.0620117C0.0808919 4.14469 0.345215 3.229 0.85498 2.46436C1.37419 1.69971 2.07275 1.11442 2.95068 0.708496C3.82861 0.302572 4.81038 0.0996094 5.896 0.0996094C7.09489 0.0996094 8.11442 0.316732 8.95459 0.750977C9.8042 1.18522 10.4508 1.80827 10.8945 2.62012C11.3382 3.42253 11.5601 4.37598 11.5601 5.48047C11.5601 6.33008 11.3854 7.11361 11.0361 7.83105C10.6963 8.53906 10.2573 9.20459 9.71924 9.82764C9.18115 10.4507 8.61003 11.0454 8.00586 11.6118C7.48665 12.0933 7.13737 12.6361 6.95801 13.2402C6.77865 13.8444 6.68896 14.4958 6.68896 15.1943ZM3.94189 19.6831C3.94189 19.2583 4.07406 18.8996 4.33838 18.6069C4.6027 18.3143 4.98503 18.168 5.48535 18.168C5.99512 18.168 6.38216 18.3143 6.64648 18.6069C6.91081 18.8996 7.04297 19.2583 7.04297 19.6831C7.04297 20.089 6.91081 20.4383 6.64648 20.731C6.38216 21.0236 5.99512 21.1699 5.48535 21.1699C4.98503 21.1699 4.6027 21.0236 4.33838 20.731C4.07406 20.4383 3.94189 20.089 3.94189 19.6831Z" fill="white"/>
</svg>
